#N canvas 872 226 450 455 10;
#X obj 74 67 inlet;
#X obj 72 105 *~ 0.064;
#X obj 73 133 rpole~ 0.93538;
#X obj 73 159 *~ 0.00431;
#X obj 73 185 cpole~ 0.96559 0.05592;
#X obj 72 211 cpole~ 0.96559 -0.05592;
#X obj 74 240 *~ 0.125;
#X obj 74 265 rzero~ -1;
#X obj 73 289 rzero~ -1;
#X obj 73 315 rzero~ -1;
#X obj 216 324 block~ 1024 1 16;
#X obj 74 345 outlet~;
#X connect 0 0 1 0;
#X connect 1 0 2 0;
#X connect 2 0 3 0;
#X connect 3 0 4 0;
#X connect 4 0 5 0;
#X connect 4 1 5 1;
#X connect 5 0 6 0;
#X connect 6 0 7 0;
#X connect 7 0 8 0;
#X connect 8 0 9 0;
#X connect 9 0 11 0;
