#N canvas 143 96 489 763 10;
#X floatatom 40 262 5 0 0 0 - - -;
#X floatatom 199 186 5 0 0 0 - - -;
#X floatatom 210 236 5 0 0 0 - - -;
#X floatatom 275 239 5 0 0 0 - - -;
#X obj 286 72 inlet;
#X obj 182 475 outlet;
#X obj 160 266 list;
#X obj 100 266 bang;
#X obj 245 110 == 1;
#X obj 126 300 list;
#X msg 81 346 1 \$1 \$2 \$3;
#X obj 323 152 == 0;
#X obj 154 425 line;
#X obj 348 322 bang;
#X msg 281 380 0 \$1;
#X obj 11 10 cnv 15 150 240 empty empty empty 20 12 0 14 -66577 -66577
0;
#X obj 26 26 cnv 15 120 160 empty empty empty 20 12 0 14 -233017 -66577
0;
#X obj 26 195 cnv 15 120 40 empty empty ADSR 30 20 0 26 -233017 -66577
0;
#X obj 66 59 vsl 15 110 0 1000 0 0 empty empty D 3 -9 0 15 -262144
-1 -1 0 1;
#X obj 93 59 vsl 15 110 0 1 0 0 empty empty S 3 -9 0 15 -262144 -1
-1 0 1;
#X obj 119 59 vsl 15 110 0 1000 0 0 empty empty R 3 -9 0 15 -262144
-1 -1 0 1;
#X obj 39 59 vsl 15 110 0 1000 0 0 empty empty A 3 -9 0 15 -262144
-1 -1 0 1;
#X connect 0 0 9 0;
#X connect 1 0 6 1;
#X connect 2 0 6 0;
#X connect 3 0 14 0;
#X connect 4 0 8 0;
#X connect 4 0 11 0;
#X connect 6 0 9 1;
#X connect 7 0 10 0;
#X connect 8 0 7 0;
#X connect 9 0 10 0;
#X connect 10 0 12 0;
#X connect 11 0 13 0;
#X connect 12 0 5 0;
#X connect 13 0 14 0;
#X connect 14 0 12 0;
#X connect 18 0 1 0;
#X connect 19 0 2 0;
#X connect 20 0 3 0;
#X connect 21 0 0 0;
#X coords 0 -1 1 1 150 240 1 10 10;
