#N canvas 271 272 548 461 10;
#X obj 34 47 vradio 15 1 0 3 empty empty Logic_OP 0 -8 0 10 -262144
-1 -1 0;
#X text 56 46 AND;
#X text 56 61 OR;
#X text 57 76 EQUAL;
#X floatatom 51 128 5 0 0 0 - - -, f 5;
#X obj 142 104 == 0;
#X obj 142 141 == 1;
#X obj 141 173 == 2;
#X obj 175 42 inlet~;
#X obj 278 42 inlet~;
#X obj 294 190 expr~ $v1 || $v2;
#X obj 389 124 expr~ $v1 && $v2;
#X obj 230 240 expr~ $v1 == $v2;
#X obj 443 301 outlet~;
#X obj 235 202 *~;
#X obj 196 203 *~;
#X obj 300 158 *~;
#X obj 348 156 *~;
#X obj 384 89 *~;
#X obj 423 88 *~;
#X connect 0 0 4 0;
#X connect 4 0 5 0;
#X connect 4 0 6 0;
#X connect 4 0 7 0;
#X connect 5 0 18 1;
#X connect 5 0 19 1;
#X connect 6 0 16 1;
#X connect 6 0 17 1;
#X connect 7 0 15 1;
#X connect 7 0 14 1;
#X connect 8 0 15 0;
#X connect 8 0 16 0;
#X connect 8 0 18 0;
#X connect 9 0 14 0;
#X connect 9 0 17 0;
#X connect 9 0 19 0;
#X connect 10 0 13 0;
#X connect 11 0 13 0;
#X connect 12 0 13 0;
#X connect 14 0 12 1;
#X connect 15 0 12 0;
#X connect 16 0 10 0;
#X connect 17 0 10 1;
#X connect 18 0 11 0;
#X connect 19 0 11 1;
#X coords 0 -1 1 1 100 100 1 10 10;
