#N canvas 1009 231 619 577 10;
#X obj 89 57 vsl 15 128 0.1 1 0 0 empty empty empty 0 -9 0 10 -262144
-1 -1 0 1;
#X obj 271 27 inlet~;
#X obj 347 27 inlet~;
#X obj 416 27 inlet~;
#X obj 480 27 inlet~;
#X obj 125 57 vsl 15 128 0.1 1 0 0 empty empty empty 0 -9 0 10 -262144
-1 -1 0 1;
#X obj 158 57 vsl 15 128 0.1 1 0 0 empty empty empty 0 -9 0 10 -262144
-1 -1 0 1;
#X obj 53 57 vsl 15 128 0.1 1 0 0 empty empty empty 0 -9 0 10 -262144
-1 -1 0 1;
#X obj 309 136 *~;
#X obj 368 136 *~;
#X obj 423 136 *~;
#X obj 262 136 *~;
#X obj 328 285 outlet~;
#X connect 0 0 8 1;
#X connect 1 0 11 0;
#X connect 2 0 8 0;
#X connect 3 0 9 0;
#X connect 4 0 10 0;
#X connect 5 0 9 1;
#X connect 6 0 10 1;
#X connect 7 0 11 1;
#X connect 8 0 12 0;
#X connect 9 0 12 0;
#X connect 10 0 12 0;
#X connect 11 0 12 0;
#X coords 0 -1 1 1 200 200 1 20 20;
