#N canvas 1185 366 663 616 10;
#X obj 51 25 tgl 15 0 empty empty empty 17 7 0 10 -262144 -1 -1 0 1
;
#X obj 140 269 metro 100;
#N canvas 267 422 1505 236 (subpatch) 0;
#X array waveform 100 float 0;
#X coords 0 1 99 -1 200 140 1;
#X restore 51 83 graph;
#X obj 120 25 hsl 128 15 1 10 0 0 empty empty empty -2 -8 0 10 -262144
-1 -1 0 1;
#X obj 88 349 tabwrite~ waveform;
#X obj 46 269 inlet~;
#X connect 0 0 1 0;
#X connect 1 0 4 0;
#X connect 3 0 1 1;
#X connect 5 0 4 0;
#X coords 0 -1 1 1 240 240 1 30 0;
