#N canvas 0 96 1600 804 10;
#X obj 479 551 speaker;
#X obj 58 -13 vco;
#X obj 1121 593 vcf;
#X obj 731 536 mixer;
#X obj 535 116 envelope;
#X obj 464 387 vca;
#X obj 751 344 vca;
#X obj 565 83 tgl 15 0 empty empty empty 17 7 0 10 -262144 -1 -1 0
1;
#X obj 204 179 vco;
#X obj 1301 371 vco;
#X obj 983 371 vco;
#X obj 1116 -14 vco;
#X obj 707 50 envelope;
#X obj 737 17 tgl 15 0 empty empty empty 17 7 0 10 -262144 -1 -1 0
1;
#X obj 958 170 vcf;
#X connect 1 0 8 0;
#X connect 2 0 3 3;
#X connect 3 0 0 0;
#X connect 4 0 5 1;
#X connect 5 0 3 0;
#X connect 6 0 3 1;
#X connect 7 0 4 0;
#X connect 8 0 5 0;
#X connect 9 0 2 1;
#X connect 10 0 2 0;
#X connect 11 0 14 0;
#X connect 12 0 6 1;
#X connect 13 0 12 0;
#X connect 14 0 6 0;
