#N canvas 944 533 450 300 10;
#X obj 212 24 inlet~;
#X obj 218 228 outlet~;
#X obj 31 61 hsl 128 15 0.1 10 0 0 empty empty Gain -2 -8 0 10 -262144
-1 -1 0 1;
#X obj 229 90 *~;
#X text 14 26 Audio IN;
#X text 158 14 CV;
#X obj 312 24 inlet~;
#X obj 321 70 +~ 1;
#X obj 317 115 *~ 0.5;
#X obj 240 140 *~;
#X connect 0 0 3 0;
#X connect 2 0 3 1;
#X connect 3 0 9 0;
#X connect 6 0 7 0;
#X connect 7 0 8 0;
#X connect 8 0 9 1;
#X connect 9 0 1 0;
#X coords 0 -1 1 1 170 80 1 10 10;
