#N canvas 878 383 595 479 10;
#X obj 212 24 inlet~;
#X obj 218 228 outlet~;
#X obj 232 144 *~;
#X obj 312 24 inlet~;
#X obj 321 70 +~ 1;
#X obj 317 115 *~ 0.5;
#X obj 236 190 *~;
#X obj 63 151 pack 9 59;
#X obj 150 137 line~;
#X obj 10 141 / 127;
#X obj 11 10 cnv 15 180 120 empty empty empty 20 12 0 14 -66577 -66577
0;
#X obj 24 23 cnv 15 155 50 empty empty empty 20 12 0 14 -233017 -66577
0;
#X obj 37 43 hsl 128 15 0.1 10 0 0 empty empty Gain -2 -8 0 10 -262144
-1 -1 0 1;
#X obj 65 82 cnv 15 70 33 empty empty VCA 15 17 0 23 -233017 -66577
0;
#X connect 0 0 2 0;
#X connect 2 0 6 0;
#X connect 3 0 4 0;
#X connect 4 0 5 0;
#X connect 5 0 6 1;
#X connect 6 0 1 0;
#X connect 7 0 8 0;
#X connect 8 0 2 1;
#X connect 9 0 7 0;
#X connect 12 0 9 0;
#X coords 0 -1 1 1 180 120 1 10 10;
