#N canvas 587 530 450 300 10;
#X obj 252 36 inlet~;
#X obj 220 176 outlet~;
#X obj 33 43 hsl 128 15 0.1 10 0 0 empty empty Gain -2 -8 0 10 -262144
-1 -1 4900 1;
#X obj 224 103 *~;
#X connect 0 0 3 0;
#X connect 2 0 3 1;
#X connect 3 0 1 0;
#X coords 0 -1 1 1 170 60 1 10 10;
