#N canvas 539 112 624 432 10;
#X obj 42 86 hsl 128 15 0 127 0 0 empty empty empty -2 -8 0 10 -262144
-1 -1 0 1;
#X obj 41 48 hsl 128 15 0 127 0 0 empty empty empty -2 -8 0 10 -262144
-1 -1 0 1;
#X obj 42 124 hsl 128 15 0 127 0 0 empty empty empty -2 -8 0 10 -262144
-1 -1 0 1;
#X text 38 28 Cutoff;
#X text 36 65 Resonance;
#X text 36 102 Modulation;
#X obj 190 47 vradio 15 1 0 3 empty empty empty 0 -8 0 10 -262144 -1
-1 0;
#X text 188 27 Filter type;
#X text 209 44 LP;
#X text 209 61 HP;
#X text 209 76 BP;
#X text 242 13 CV;
#X obj 73 204 inlet~;
#X floatatom 193 170 5 0 0 0 - - -;
#X obj 324 40 inlet~;
#X obj 142 205 == 0;
#X obj 191 203 == 1;
#X obj 237 202 == 2;
#X obj 91 242 *~;
#X obj 142 241 *~;
#X obj 191 238 *~;
#X obj 33 299 lop~;
#X obj 91 297 hip~;
#X obj 147 297 bp~;
#X obj 18 254 mtof;
#X obj 35 228 mtof;
#X obj 214 389 outlet~;
#X obj 299 169 *~;
#X obj 217 355 +~;
#X connect 0 0 25 0;
#X connect 1 0 24 0;
#X connect 2 0 27 1;
#X connect 6 0 13 0;
#X connect 12 0 18 0;
#X connect 12 0 19 0;
#X connect 12 0 20 0;
#X connect 13 0 15 0;
#X connect 13 0 16 0;
#X connect 13 0 17 0;
#X connect 14 0 27 0;
#X connect 15 0 18 1;
#X connect 16 0 19 1;
#X connect 17 0 20 1;
#X connect 18 0 21 0;
#X connect 19 0 22 0;
#X connect 20 0 23 0;
#X connect 21 0 28 0;
#X connect 22 0 28 0;
#X connect 23 0 28 0;
#X connect 24 0 21 1;
#X connect 24 0 22 1;
#X connect 24 0 23 2;
#X connect 25 0 23 1;
#X connect 27 0 28 1;
#X connect 28 0 26 0;
#X coords 0 -1 1 1 250 150 1 10 10;
