#N canvas 972 256 667 690 10;
#X obj 82 174 mtof;
#X obj 39 299 osc~;
#X obj 47 43 hsl 128 15 0 127 0 0 empty empty OSC_freq -2 -8 0 10 -262144
-1 -1 0 1;
#X obj 145 502 outlet~;
#X obj 122 316 phasor~;
#X obj 258 346 phasor~;
#X obj 263 403 expr~ $v1 > 0.5;
#X obj 45 81 vradio 15 1 0 3 empty empty Waveform 0 -8 0 10 -262144
-1 -1 0;
#X floatatom 264 178 5 0 0 0 - - -;
#X text 63 80 Sinus;
#X text 62 96 Sawtooth;
#X text 62 112 Square;
#X obj 167 180 == 0;
#X obj 246 224 == 1;
#X obj 321 228 == 2;
#X obj 268 276 *~;
#X obj 145 276 *~;
#X obj 58 239 *~;
#X connect 0 0 5 0;
#X connect 0 0 17 0;
#X connect 0 0 16 0;
#X connect 0 0 15 0;
#X connect 1 0 3 0;
#X connect 2 0 0 0;
#X connect 4 0 3 0;
#X connect 5 0 6 0;
#X connect 6 0 3 0;
#X connect 7 0 8 0;
#X connect 8 0 12 0;
#X connect 8 0 13 0;
#X connect 8 0 14 0;
#X connect 12 0 17 1;
#X connect 13 0 16 1;
#X connect 14 0 15 1;
#X connect 15 0 5 0;
#X connect 16 0 4 0;
#X connect 17 0 1 0;
#X coords 0 -1 1 1 200 130 1 10 10;
