#N canvas 640 126 955 773 10;
#X obj 43 192 mtof;
#X obj 39 299 osc~;
#X obj 291 674 outlet~;
#X obj 122 299 phasor~;
#X obj 239 307 phasor~;
#X floatatom 263 194 5 0 0 0 - - -;
#X obj 162 194 == 0;
#X obj 224 225 == 1;
#X obj 278 226 == 2;
#X obj 268 276 *~;
#X obj 145 276 *~;
#X obj 45 247 *~;
#X obj 488 42 inlet~;
#X obj 281 518 +~;
#X obj 407 194 *~;
#X obj 243 338 expr~ $v1 > $v2;
#X obj 326 193 / 100;
#X obj 352 228 == 3;
#X obj 392 332 phasor~;
#X obj 399 286 *~;
#X obj 416 365 *~ -1;
#X obj 420 395 +~ 1;
#X obj 394 429 min~;
#X obj 127 331 *~ 2;
#X obj 142 357 -~ 1;
#X obj 244 364 *~ 2;
#X obj 244 387 -~ 1;
#X obj 383 460 -~ 0.25;
#X obj 361 485 *~ 4;
#X obj 328 534 limiter~;
#X obj 262 576 z~ 64;
#X obj 281 623 *~;
#X obj 10 11 cnv 15 280 170 empty empty empty 20 12 0 14 -66577 -66577
0;
#X obj 27 24 cnv 16 160 142 empty empty empty 20 12 0 14 -228856 -66577
0;
#X obj 43 91 hsl 128 15 0 5000 0 0 empty empty Modulation -2 -8 0 10
-262144 -1 -1 0 1;
#X obj 43 136 hsl 128 15 0 100 0 0 empty empty Pulse_width -2 -8 0
10 -262144 -1 -1 0 1;
#X obj 43 46 hsl 128 15 0 127 0 0 empty empty OSC_freq -2 -8 0 10 -262144
-1 -1 0 1;
#X obj 193 24 cnv 15 82 90 empty empty empty 20 12 0 14 -228856 -66577
0;
#X obj 201 46 vradio 15 1 0 4 empty empty Waveform 0 -8 0 10 -262144
-1 -1 0;
#X text 219 45 Sinus;
#X text 219 59 Sawtooth;
#X text 219 74 Square;
#X text 219 89 Triangle;
#X obj 193 119 cnv 15 82 47 empty empty VCO 15 25 0 30 -228856 -66577
0;
#X connect 0 0 11 0;
#X connect 0 0 10 0;
#X connect 0 0 9 0;
#X connect 0 0 19 0;
#X connect 1 0 13 0;
#X connect 3 0 23 0;
#X connect 4 0 15 0;
#X connect 5 0 6 0;
#X connect 5 0 7 0;
#X connect 5 0 8 0;
#X connect 5 0 17 0;
#X connect 6 0 11 1;
#X connect 7 0 10 1;
#X connect 8 0 9 1;
#X connect 9 0 4 0;
#X connect 10 0 3 0;
#X connect 11 0 1 0;
#X connect 12 0 14 0;
#X connect 13 0 30 0;
#X connect 13 0 29 0;
#X connect 14 0 13 1;
#X connect 15 0 25 0;
#X connect 16 0 15 1;
#X connect 17 0 19 1;
#X connect 18 0 20 0;
#X connect 18 0 22 0;
#X connect 19 0 18 0;
#X connect 20 0 21 0;
#X connect 21 0 22 1;
#X connect 22 0 27 0;
#X connect 23 0 24 0;
#X connect 24 0 13 0;
#X connect 25 0 26 0;
#X connect 26 0 13 0;
#X connect 27 0 28 0;
#X connect 28 0 13 0;
#X connect 29 0 31 1;
#X connect 30 0 31 0;
#X connect 31 0 2 0;
#X connect 34 0 14 1;
#X connect 35 0 16 0;
#X connect 36 0 0 0;
#X connect 38 0 5 0;
#X coords 0 -1 1 1 280 170 2 10 10;
