#N canvas 957 260 667 690 10;
#X obj 78 174 mtof;
#X obj 39 299 osc~;
#X obj 46 42 hsl 128 15 0 127 0 0 empty empty OSC_freq -2 -8 0 10 -262144
-1 -1 0 1;
#X obj 268 595 outlet~;
#X obj 122 299 phasor~;
#X obj 258 346 phasor~;
#X obj 205 42 vradio 15 1 0 3 empty empty Waveform 0 -8 0 10 -262144
-1 -1 0;
#X floatatom 263 194 5 0 0 0 - - -, f 5;
#X text 223 41 Sinus;
#X text 223 71 Sawtooth;
#X text 224 56 Square;
#X obj 162 194 == 0;
#X obj 224 225 == 1;
#X obj 278 226 == 2;
#X obj 268 276 *~;
#X obj 145 276 *~;
#X obj 68 225 *~;
#X obj 488 42 inlet~;
#X text 16 26 CV;
#X obj 296 517 +~;
#X obj 407 194 *~;
#X obj 46 75 hsl 128 15 0 5000 0 0 empty empty Modulation -2 -8 0 10
-262144 -1 -1 0 1;
#X obj 235 383 expr~ $v1 > $v2;
#X obj 46 110 hsl 128 15 0 100 0 0 empty empty Pulse_width -2 -8 0
10 -262144 -1 -1 0 1;
#X obj 326 193 / 100;
#X connect 0 0 16 0;
#X connect 0 0 15 0;
#X connect 0 0 14 0;
#X connect 1 0 19 0;
#X connect 2 0 0 0;
#X connect 4 0 19 0;
#X connect 5 0 22 0;
#X connect 6 0 7 0;
#X connect 7 0 11 0;
#X connect 7 0 12 0;
#X connect 7 0 13 0;
#X connect 11 0 16 1;
#X connect 12 0 15 1;
#X connect 13 0 14 1;
#X connect 14 0 5 0;
#X connect 15 0 4 0;
#X connect 16 0 1 0;
#X connect 17 0 20 0;
#X connect 19 0 3 0;
#X connect 20 0 19 1;
#X connect 21 0 20 1;
#X connect 22 0 19 0;
#X connect 23 0 24 0;
#X connect 24 0 22 1;
#X coords 0 -1 1 1 280 140 1 10 10;
